# xmcd
#
# Track frame offsets:
#	183
#	4035
#	14520
#	27658
#	43945
#	62728
#	81833
#	96025
#	115783
#	132288
#	148993
#	173150
#	185950
#	202493
#	214083
#	231983
#
# Disc length: 3369 seconds
#
# Revision: 1
# Processed by: cddbd v1.5.1PL2 Copyright (c) Steve Scherf et al.
# Submitted via: audiograbber 1.83.01
#
DISCID=f60d2710
DTITLE=Big J and the Piccolo chickens - Toxic Groove Funky Juice
DYEAR=1900
DGENRE=Blues
TTITLE0=Intro
TTITLE1=Funky Stuff
TTITLE2=I want you back
TTITLE3=Party time
TTITLE4=Cant turn U loose
TTITLE5=Everyone needs somebody
TTITLE6=I got U
TTITLE7=Attitude dance
TTITLE8=Knock on wood
TTITLE9=Sex machine
TTITLE10=Beautiful night
TTITLE11=car wash
TTITLE12=Play that funky music
TTITLE13=Crosstown traffic
TTITLE14=Hard to Handle
TTITLE15=sweet talk
EXTD=
EXTT0=
EXTT1=
EXTT2=
EXTT3=
EXTT4=
EXTT5=
EXTT6=
EXTT7=
EXTT8=
EXTT9=
EXTT10=
EXTT11=
EXTT12=
EXTT13=
EXTT14=
EXTT15=
PLAYORDER=
